<svg width="46" height="34" viewBox="0 0 46 34" fill="none" xmlns="http://www.w3.org/2000/svg">
<path fill-rule="evenodd" clip-rule="evenodd" d="M45.5729 17.0009C45.5729 26.1535 38.1533 33.5731 29.0007 33.5731C19.8482 33.5731 12.4285 26.1535 12.4285 17.0009C12.4285 7.84833 19.8482 0.428711 29.0007 0.428711C38.1533 0.428711 45.5729 7.84833 45.5729 17.0009ZM8.42709 23.8899H8.86597C9.46767 23.8899 9.94195 23.5385 10.2888 22.8357C10.6357 22.1329 10.9825 20.9106 11.3294 19.1536C11.3789 18.9244 11.4214 18.8175 11.478 18.8175H11.5205H11.5488L11.0108 24.5011C10.7065 24.3025 10.1048 24.1955 9.20575 24.1955H5.25578V24.0733C5.25578 23.9663 5.30533 23.9052 5.41152 23.8441C5.44569 23.8293 5.48134 23.813 5.51821 23.7961C5.5959 23.7605 5.67905 23.7224 5.76546 23.6913C5.89995 23.6302 6.01321 23.4469 6.1194 23.1413C6.20635 22.8911 6.25532 22.5589 6.27021 22.1363C6.57807 21.1335 6.732 19.7681 6.732 18.0402V12.5098C6.732 11.9086 6.78886 11.4277 6.90969 11.0821C7.03052 10.7214 7.15845 10.511 7.30771 10.4358C7.45697 10.3607 7.58491 10.2856 7.70574 10.2104C7.82657 10.1353 7.88343 10.0601 7.88343 9.95494V9.86429H8.5899V9.98652C8.5899 10.0935 8.53327 10.1699 8.42709 10.2157C8.3209 10.2768 8.20056 10.3226 8.07315 10.3685C7.94573 10.4143 7.82539 10.5671 7.71921 10.8268C7.61302 11.0866 7.55639 11.438 7.55639 11.881V17.0146V22.1482C7.55639 22.7135 7.62718 23.1566 7.76168 23.4469C7.89617 23.7524 8.1227 23.8899 8.42709 23.8899ZM5.37445 9.86429V9.83471H7.88343V9.86429H5.37445ZM5.37445 9.86429V9.95494C5.37445 10.0601 5.43841 10.1353 5.55924 10.2104C5.68718 10.2856 5.81511 10.3607 5.96437 10.4358C6.11363 10.511 6.24868 10.7364 6.36951 11.0821C6.49034 11.4277 6.55431 11.9086 6.55431 12.5098V18.3258C6.55431 19.5625 6.4629 20.5984 6.27513 21.4284V11.8658C6.27513 11.4074 6.22558 11.056 6.1194 10.8116C6.01321 10.5671 5.89995 10.4143 5.77254 10.3685C5.69001 10.3388 5.61343 10.3027 5.54086 10.2685C5.50138 10.2499 5.46309 10.2318 5.42567 10.2157C5.31949 10.1546 5.26994 10.0782 5.26994 9.98652V9.86429H5.37445ZM6.27513 21.4284V21.8426C6.27513 21.945 6.27351 22.0429 6.27021 22.1363C5.8444 23.5234 5.12409 24.2169 4.10929 24.2169C2.18313 24.2169 1.2165 22.4586 1.2165 18.957V11.8335C1.2165 11.3826 1.16675 11.037 1.06013 10.7965C0.960627 10.5561 0.839798 10.4058 0.718967 10.3607C0.62873 10.327 0.538492 10.285 0.457136 10.2471L0.457096 10.247L0.456924 10.247C0.42942 10.2341 0.402932 10.2218 0.377804 10.2104C0.278297 10.1503 0.221436 10.0752 0.221436 9.98499V9.86477H3.53358V9.98499C3.53358 10.0902 3.49093 10.1503 3.41275 10.2104C3.32746 10.2555 3.23506 10.3006 3.12844 10.3306C3.02183 10.3607 2.91522 10.4659 2.81571 10.6312C2.7162 10.7965 2.64513 11.037 2.60959 11.3225C2.53141 11.7584 2.48876 12.2543 2.48876 12.8404V19.1073C2.48876 20.6402 2.63091 21.7974 2.90811 22.5939C3.1853 23.3904 3.69705 23.7811 4.43624 23.7811C5.08303 23.7811 5.60189 23.3152 5.9857 22.3684C6.09957 22.092 6.19592 21.7785 6.27513 21.4284Z" fill="white"/>
</svg>
